<svg width="951" height="236" viewBox="0 0 951 236" fill="none" xmlns="http://www.w3.org/2000/svg">
<g clip-path="url(#clip0_1_6)">
<path d="M502.1 8.08999C502.23 7.86999 502.38 7.86999 502.56 8.08999L502.29 8.30999L502.1 8.08999Z" fill="#0124DD"/>
<path d="M272.36 84.93C275.25 76.19 277.99 67.93 280.67 59.74C281 58.74 281.67 58.51 282.54 58.35C297.01 55.65 311.54 53.35 326.32 54.08C336.75 54.57 346.78 56.7 355.76 62.3C367.94 69.88 373.51 81.3 374.3 95.3C374.76 103.35 373.45 111.3 372.3 119.18C369.91 135.24 367.45 151.28 365.14 167.34C365.077 168.013 364.834 168.658 364.436 169.205C364.039 169.752 363.501 170.182 362.88 170.45C353.46 175.62 343.24 178.45 332.74 180.17C319.746 182.421 306.492 182.758 293.4 181.17C282.49 179.8 272.32 176.41 264.4 168.39C260.963 164.871 258.295 160.675 256.565 156.07C254.835 151.465 254.081 146.551 254.351 141.639C254.621 136.727 255.909 131.925 258.133 127.537C260.356 123.149 263.468 119.272 267.27 116.15C275.39 109.47 284.99 106.15 295.1 104C310.41 100.76 325.86 101.2 341.32 102.38C343.25 102.52 343.67 101.93 343.76 100.21C344.45 88.15 337.21 79.49 324.5 77.16C315.68 75.54 307.02 76.94 298.36 78.36C289.524 79.8139 280.826 82.0117 272.36 84.93ZM326.44 121.31C320.936 121.274 315.439 121.679 310 122.52C304.12 123.52 298.41 125.07 293.67 128.97C288.31 133.38 286.88 139.3 287.94 145.82C288.94 151.77 293.1 155.03 298.49 156.95C300.961 157.819 303.531 158.373 306.14 158.6C315.78 159.53 325.14 157.85 334.44 155.55C335.071 155.467 335.649 155.155 336.066 154.674C336.482 154.193 336.708 153.576 336.7 152.94C337.97 143.49 339.23 134.03 340.63 124.6C340.87 122.97 340.33 122.66 338.97 122.4C334.827 121.716 330.638 121.352 326.44 121.31Z" fill="#114185"/>
<path d="M718.8 150.79C717.2 155.65 715.8 160 714.32 164.35C713.14 167.92 711.88 171.46 710.76 175.06C710.653 175.611 710.385 176.118 709.99 176.516C709.594 176.915 709.09 177.188 708.54 177.3C693.24 181.38 677.74 183.59 661.94 181.6C643.94 179.33 629.06 171.6 619.94 155.09C614.33 144.87 612.55 133.74 613.31 122.27C614.76 100.45 623.85 82.36 640.75 68.35C651.02 59.83 663 55.45 676.18 54.15C685.27 53.26 694.31 53.43 703.18 55.9C721.24 60.9 733.28 74.95 735.59 93.55C736.92 104.24 735.59 114.74 733.86 125.25C733.65 126.56 732.99 126.6 731.99 126.6C727.14 126.6 722.28 126.6 717.43 126.6C694.097 126.6 670.763 126.6 647.43 126.6C645.55 126.6 645 127.06 644.97 128.99C644.71 144.71 653.39 155.09 668.84 157.74C680.26 159.74 691.37 158.01 702.46 155.59C708.006 154.35 713.464 152.746 718.8 150.79ZM678 106.19H700.4C707.24 106.19 707.24 106.19 707.47 99.35C707.94 85.5 699.47 76.47 685.7 75.7C669.23 74.77 653.7 86.7 649.7 104.4C649.37 105.87 649.7 106.23 651.2 106.22C660.11 106.15 669 106.19 678 106.19Z" fill="#114185"/>
<path d="M776.3 182C761.616 181.902 747.041 179.472 733.12 174.8C731.73 174.32 731.36 173.92 731.86 172.41C734.147 165.483 736.337 158.523 738.43 151.53C738.95 149.81 739.56 149.95 740.94 150.61C754.311 157.15 769.412 159.279 784.07 156.69C787.509 156.166 790.772 154.829 793.59 152.79C794.894 151.886 795.978 150.702 796.763 149.324C797.549 147.946 798.015 146.41 798.128 144.828C798.241 143.245 797.999 141.658 797.417 140.182C796.836 138.707 795.932 137.38 794.77 136.3C792.228 133.947 789.375 131.955 786.29 130.38C778.64 126.1 770.86 122.09 763.59 117.13C744.06 103.76 746.44 75.93 765.67 63.72C774.19 58.31 783.52 55.6 793.43 54.57C809.95 52.86 825.92 55.69 841.66 60.43C843.1 60.86 843.47 61.25 842.92 62.78C840.55 69.35 838.26 75.96 836.11 82.61C835.54 84.36 834.86 84.23 833.51 83.61C823.665 78.9645 812.885 76.6383 802 76.81C796.72 76.94 791.57 77.81 787.1 80.93C785.2 82.1417 783.75 83.9437 782.973 86.0591C782.196 88.1746 782.136 90.4866 782.8 92.64C783.661 95.0549 785.287 97.1228 787.43 98.53C792.06 102.01 797.36 104.36 802.43 107.14C808.633 110.379 814.554 114.132 820.13 118.36C836.61 131.44 834.94 156.36 819.13 169.02C808.93 177.17 796.99 180.43 784.29 181.59C781.1 181.87 777.93 181.92 776.3 182Z" fill="#114185"/>
<path d="M884.17 182C869.682 181.86 855.305 179.454 841.56 174.87C839.97 174.34 839.56 173.87 840.15 172.19C842.41 165.41 844.55 158.59 846.63 151.75C847.13 150.09 847.63 149.85 849.25 150.63C862.564 157.11 877.578 159.243 892.17 156.73C895.297 156.239 898.293 155.124 900.98 153.45C907.61 149.22 908.42 141.45 902.82 136.01C900.471 133.899 897.86 132.101 895.05 130.66C887.05 126.12 878.74 122.06 871.21 116.66C853.84 104.11 856 81.4 866.62 70C873.78 62.33 882.82 58.21 892.85 56C906.16 53 919.46 53.72 932.75 56.18C938.35 57.18 943.83 58.7 949.31 60.18C951.13 60.69 951.79 61.23 951.02 63.31C948.71 69.58 946.61 75.92 944.57 82.31C944 84.06 943.43 84.31 941.71 83.56C931.996 78.9988 921.381 76.6784 910.65 76.77C905.65 76.86 900.82 77.6 896.46 80.22C892.33 82.69 890.24 86.28 890.86 91.22C891.25 94.36 893.14 96.55 895.52 98.35C900.52 102.14 906.27 104.64 911.71 107.64C917.91 111.07 924.03 114.64 929.44 119.25C944.6 132.25 942.89 156.35 927.68 168.75C919.51 175.42 910.03 178.88 899.8 180.67C894.631 181.51 889.406 181.954 884.17 182Z" fill="#114185"/>
<path d="M488 152.56C487.49 155.56 486.2 158.25 485.25 161.08C483.44 166.47 481.51 171.81 479.72 177.21C479.588 177.75 479.289 178.234 478.865 178.594C478.441 178.953 477.914 179.169 477.36 179.21C465.36 181.21 453.23 182.48 441.04 181.56C422.85 180.19 407.25 173.56 396.53 158.06C388.97 147.14 386.3 134.73 386.97 121.66C388.09 99.86 397.33 82.02 414.36 68.36C424.12 60.54 435.6 56.7 447.83 55.1C462.969 52.9543 478.385 53.8759 493.16 57.81C495.98 58.58 498.7 59.66 501.47 60.56C502.47 60.88 502.73 61.31 502.36 62.4C500 69.3 497.66 76.22 495.45 83.17C494.96 84.7 494.27 84.39 493.28 84C486.219 81.1047 478.742 79.3527 471.13 78.81C454.66 77.88 440.34 82.41 430.06 96.12C420.43 108.97 418.94 130.31 429.25 143.21C435.66 151.21 444.12 155.45 454.16 156.62C464.99 157.88 475.46 155.79 485.8 152.82C486.46 152.63 487.13 152.5 487.8 152.34L488 152.56Z" fill="#114185"/>
<path d="M602 152.42C599.7 159.04 597.06 165.59 595.17 172.35C593.8 177.28 591.49 179.62 586.11 180.16C571.11 181.66 556.11 183.34 541.11 179.37C517.52 173.1 502.11 154.28 500.83 129.82C499.43 103.24 509.61 82 531.02 66.29C540.02 59.7 550.52 56.58 561.48 55.15C576.615 53.0114 592.026 53.9295 606.8 57.85C609.54 58.6 612.17 59.72 614.9 60.51C616.33 60.93 616.37 61.58 615.9 62.83C613.61 69.52 611.34 76.21 609.21 82.95C608.7 84.56 608.09 84.5 606.78 84C596.3 80 585.58 77.83 574.27 79C555.06 81.06 540.44 93.76 536.75 112.45C534.09 125.94 536.53 138.28 547.28 147.83C555.85 155.43 566.28 157.55 577.39 156.9C585.228 156.384 592.973 154.906 600.45 152.5C600.9 152.42 601.3 152.05 602 152.42Z" fill="#114185"/>
<path d="M221.04 124.9L96.47 0.329987V19.45L201.92 124.9L201.96 124.94L110.62 216.28L110.51 216.17L19.23 124.9L19.15 124.82L63.96 80.01H44.51L-0.340027 124.86L-0.300026 124.9L110.47 235.67L110.51 235.63L221.14 125L221.04 124.9Z" fill="#FE6309"/>
<path d="M96.43 32.61V51.73L169.64 124.94L110.66 183.92L51.63 124.9L51.55 124.82L96.36 80.01H76.91L32.06 124.86L32.1 124.9L100.89 193.69L110.51 203.31L120.29 193.54L188.82 125L96.43 32.61Z" fill="#FE6309"/>
<path d="M156.53 124.9L120 88.33L110.28 78.61L100.72 88.17L64 124.86L100.74 161.6L110.36 171.22L120.12 161.45L156.63 125L156.53 124.9ZM110.53 151.9L83.53 124.9L83.45 124.82L110.38 97.89L137.38 124.89L110.53 151.9Z" fill="#FE6309"/>
</g>
<defs>
<clipPath id="clip0_1_6">
<rect width="951" height="236" fill="white"/>
</clipPath>
</defs>
</svg>
