<svg width="221" height="236" viewBox="0 0 221 236" fill="none" xmlns="http://www.w3.org/2000/svg">
<g clip-path="url(#clip0_1_2)">
<path d="M221.04 124.9L96.47 0.329987V19.45L201.92 124.9L201.96 124.94L110.62 216.28L110.51 216.17L19.23 124.9L19.15 124.82L63.96 80.01H44.51L-0.339996 124.86L-0.299995 124.9L110.47 235.67L110.51 235.63L221.14 125L221.04 124.9Z" fill="#FE6309"/>
<path d="M96.43 32.61V51.73L169.64 124.94L110.66 183.92L51.63 124.9L51.55 124.82L96.36 80.01H76.91L32.06 124.86L32.1 124.9L100.89 193.69L110.51 203.31L120.29 193.54L188.82 125L96.43 32.61Z" fill="#FE6309"/>
<path d="M156.53 124.9L120 88.33L110.28 78.61L100.72 88.17L64 124.86L100.74 161.6L110.36 171.22L120.12 161.45L156.63 125L156.53 124.9ZM110.53 151.9L83.53 124.9L83.45 124.82L110.38 97.89L137.38 124.89L110.53 151.9Z" fill="#FE6309"/>
</g>
<defs>
<clipPath id="clip0_1_2">
<rect width="221" height="236" fill="white"/>
</clipPath>
</defs>
</svg>
