<svg width="40" height="40" viewBox="0 0 40 40" fill="none" xmlns="http://www.w3.org/2000/svg">
<circle cx="20" cy="20" r="20" fill="#FF947A"/>
<path d="M23.8475 26.525L26.975 23.42L26.03 22.475L23.8475 24.6125L22.97 23.735L22.025 24.7025L23.8475 26.525ZM13.7 16.4H24.5V14.6H13.7V16.4ZM24.5 29C23.255 29 22.1936 28.5611 21.3158 27.6833C20.438 26.8055 19.9994 25.7444 20 24.5C20 23.255 20.4389 22.1936 21.3167 21.3158C22.1945 20.438 23.2556 19.9994 24.5 20C25.745 20 26.8064 20.4389 27.6842 21.3167C28.562 22.1945 29.0006 23.2556 29 24.5C29 25.745 28.5611 26.8064 27.6833 27.6842C26.8055 28.562 25.7444 29.0006 24.5 29ZM11 28.1V12.8C11 12.305 11.1764 11.8811 11.5292 11.5283C11.882 11.1755 12.3056 10.9994 12.8 11H25.4C25.895 11 26.3189 11.1764 26.6717 11.5292C27.0245 11.882 27.2006 12.3056 27.2 12.8V18.8075C26.78 18.5975 26.3411 18.4436 25.8833 18.3458C25.4255 18.248 24.9644 18.1994 24.5 18.2H13.7V20H20.09C19.835 20.255 19.5989 20.5325 19.3817 20.8325C19.1645 21.1325 18.9731 21.455 18.8075 21.8H13.7V23.6H18.2675C18.2375 23.75 18.2186 23.8964 18.2108 24.0392C18.203 24.182 18.1994 24.3356 18.2 24.5C18.2 25.13 18.2864 25.7339 18.4592 26.3117C18.632 26.8895 18.8906 27.4406 19.235 27.965L19.1 28.1L17.75 26.75L16.4 28.1L15.05 26.75L13.7 28.1L12.35 26.75L11 28.1Z" fill="white"/>
</svg>
