<svg width="40" height="40" viewBox="0 0 40 40" fill="none" xmlns="http://www.w3.org/2000/svg">
<circle cx="20" cy="20" r="20" fill="#DFB008"/>
<path d="M25.375 11H14.125C13.8266 11 13.5405 11.1185 13.3295 11.3295C13.1185 11.5405 13 11.8266 13 12.125V27.875C13 28.1734 13.1185 28.4595 13.3295 28.6705C13.5405 28.8815 13.8266 29 14.125 29H25.375C25.6734 29 25.9595 28.8815 26.1705 28.6705C26.3815 28.4595 26.5 28.1734 26.5 27.875V12.125C26.5 11.8266 26.3815 11.5405 26.1705 11.3295C25.9595 11.1185 25.6734 11 25.375 11ZM16.9375 24.5H15.8125V23.375H16.9375V24.5ZM16.9375 22.25H15.8125V21.125H16.9375V22.25ZM16.9375 20H15.8125V18.875H16.9375V20ZM16.9375 17.75H15.8125V16.625H16.9375V17.75ZM16.9375 15.5H15.8125V14.375H16.9375V15.5ZM23.6875 24.5H18.0625V23.375H23.6875V24.5ZM23.6875 22.25H18.0625V21.125H23.6875V22.25ZM23.6875 20H18.0625V18.875H23.6875V20ZM23.6875 17.75H18.0625V16.625H23.6875V17.75ZM23.6875 15.5H18.0625V14.375H23.6875V15.5Z" fill="white"/>
</svg>
