<svg width="200" height="200" viewBox="0 0 200 200" fill="none" xmlns="http://www.w3.org/2000/svg">
<rect width="200" height="200" rx="18" fill="#105F46"/>
<path d="M51 159V40H102.677C111.755 40 119.379 41.2202 125.548 43.6606C131.755 46.1011 136.43 49.5487 139.572 54.0034C142.754 58.4582 144.344 63.707 144.344 69.75C144.344 74.1273 143.375 78.1172 141.435 81.7197C139.534 85.3223 136.857 88.3437 133.404 90.7842C129.951 93.1859 125.916 94.8516 121.299 95.7812V96.9434C126.42 97.137 131.076 98.4347 135.266 100.836C139.456 103.199 142.793 106.473 145.276 110.656C147.759 114.801 149 119.682 149 125.299C149 131.807 147.293 137.598 143.879 142.672C140.504 147.747 135.693 151.737 129.447 154.642C123.2 157.547 115.751 159 107.1 159H51ZM83.3563 133.201H98.4869C103.918 133.201 107.992 132.194 110.708 130.18C113.424 128.127 114.781 125.105 114.781 121.115C114.781 118.326 114.141 115.963 112.861 114.026C111.581 112.09 109.757 110.618 107.391 109.61C105.063 108.603 102.25 108.1 98.9525 108.1H83.3563V133.201ZM83.3563 88.1113H96.6247C99.4568 88.1113 101.959 87.6658 104.132 86.7749C106.304 85.8839 107.992 84.6056 109.195 82.9399C110.436 81.2355 111.057 79.1631 111.057 76.7226C111.057 73.0426 109.738 70.2342 107.1 68.2974C104.462 66.3218 101.125 65.334 97.0903 65.334H83.3563V88.1113Z" fill="white"/>
</svg>
