<svg width="40" height="40" viewBox="0 0 40 40" fill="none" xmlns="http://www.w3.org/2000/svg">
<circle cx="20" cy="20" r="20" fill="#FA5A7D"/>
<path d="M20 11C15.032 11 11 15.032 11 20C11 24.968 15.032 29 20 29C24.968 29 29 24.968 29 20C29 15.032 24.968 11 20 11ZM15.5 21.35C14.753 21.35 14.15 20.747 14.15 20C14.15 19.253 14.753 18.65 15.5 18.65C16.247 18.65 16.85 19.253 16.85 20C16.85 20.747 16.247 21.35 15.5 21.35ZM20 21.35C19.253 21.35 18.65 20.747 18.65 20C18.65 19.253 19.253 18.65 20 18.65C20.747 18.65 21.35 19.253 21.35 20C21.35 20.747 20.747 21.35 20 21.35ZM24.5 21.35C23.753 21.35 23.15 20.747 23.15 20C23.15 19.253 23.753 18.65 24.5 18.65C25.247 18.65 25.85 19.253 25.85 20C25.85 20.747 25.247 21.35 24.5 21.35Z" fill="white"/>
</svg>
