<svg width="26" height="24" viewBox="0 0 26 24" fill="none" xmlns="http://www.w3.org/2000/svg">
<path d="M24 8.30779C25.0196 8.30779 25.8461 7.48124 25.8461 6.46163C25.8461 5.44203 25.0196 4.61548 24 4.61548C22.9804 4.61548 22.1538 5.44203 22.1538 6.46163C22.1538 7.48124 22.9804 8.30779 24 8.30779Z" fill="#4AB34A"/>
<path d="M14.7692 24H8.30762V22.1538H14.7692C19.3504 22.1538 23.0768 18.4273 23.0768 13.8461V10.1538H24.923V13.8461C24.923 19.4446 20.3676 24 14.7692 24Z" fill="#4AB34A"/>
<path d="M12.923 16.6153C10.3781 16.6153 8.30762 14.5448 8.30762 11.9999C8.30762 9.45498 10.3781 7.38452 12.923 7.38452C15.4679 7.38452 17.5384 9.45498 17.5384 11.9999C17.5384 14.5448 15.4679 16.6153 12.923 16.6153ZM12.923 9.23068C11.3962 9.23068 10.1538 10.4731 10.1538 11.9999C10.1538 13.5267 11.3962 14.7691 12.923 14.7691C14.4498 14.7691 15.6922 13.5267 15.6922 11.9999C15.6922 10.4731 14.4498 9.23068 12.923 9.23068Z" fill="#4AB34A"/>
<path d="M1.84615 19.3847C2.86576 19.3847 3.69231 18.5581 3.69231 17.5385C3.69231 16.5189 2.86576 15.6924 1.84615 15.6924C0.826551 15.6924 0 16.5189 0 17.5385C0 18.5581 0.826551 19.3847 1.84615 19.3847Z" fill="#4AB34A"/>
<path d="M2.76901 13.8462H0.922852V10.1538C0.922852 4.55538 5.47824 0 11.0767 0H17.5382V1.84615H11.0767C6.49547 1.84615 2.76901 5.57262 2.76901 10.1538V13.8462Z" fill="#4AB34A"/>
</svg>
