<svg width="26" height="26" viewBox="0 0 26 26" fill="none" xmlns="http://www.w3.org/2000/svg">
<path d="M23.1538 1H2.84615C1.82655 1 1 1.82655 1 2.84615V13.9231C1 14.9427 1.82655 15.7692 2.84615 15.7692H23.1538C24.1734 15.7692 25 14.9427 25 13.9231V2.84615C25 1.82655 24.1734 1 23.1538 1Z" stroke="#4AB34A" stroke-width="1.5" stroke-linecap="round" stroke-linejoin="round"/>
<path d="M13.0002 11.1537C14.5296 11.1537 15.7694 9.91387 15.7694 8.38446C15.7694 6.85506 14.5296 5.61523 13.0002 5.61523C11.4708 5.61523 10.231 6.85506 10.231 8.38446C10.231 9.91387 11.4708 11.1537 13.0002 11.1537Z" stroke="#4AB34A" stroke-width="1.5" stroke-linecap="round" stroke-linejoin="round"/>
<path d="M2.84619 20.3845H23.1539M4.69235 24.9999H21.3077" stroke="#4AB34A" stroke-width="1.5" stroke-linecap="round" stroke-linejoin="round"/>
</svg>
