<svg width="26" height="26" viewBox="0 0 26 26" fill="none" xmlns="http://www.w3.org/2000/svg">
<path d="M25 18.6841V9.84204H1V23.7368C1 24.0718 1.13308 24.3931 1.36997 24.63C1.60686 24.8669 1.92815 24.9999 2.26316 24.9999H13" stroke="#4AB34A" stroke-width="1.5" stroke-linecap="round" stroke-linejoin="round"/>
<path d="M1 4.15793C1 3.82292 1.13308 3.50163 1.36997 3.26475C1.60686 3.02786 1.92815 2.89478 2.26316 2.89478H23.7368C24.0719 2.89478 24.3931 3.02786 24.63 3.26475C24.8669 3.50163 25 3.82292 25 4.15793V9.84214H1V4.15793Z" stroke="#4AB34A" stroke-width="1.5" stroke-linejoin="round"/>
<path d="M7.94727 1V6.05263M18.0525 1V6.05263" stroke="#4AB34A" stroke-width="1.5" stroke-linecap="round"/>
<path d="M16.7897 22.4737C19.2314 22.4737 21.2108 20.4943 21.2108 18.0526C21.2108 15.611 19.2314 13.6316 16.7897 13.6316C14.348 13.6316 12.3687 15.611 12.3687 18.0526C12.3687 20.4943 14.348 22.4737 16.7897 22.4737Z" stroke="#4AB34A" stroke-width="1.5"/>
<path d="M20.5791 21.2104L24.3686 24.3683" stroke="#4AB34A" stroke-width="1.5" stroke-linecap="round" stroke-linejoin="round"/>
</svg>
