<svg width="26" height="26" viewBox="0 0 26 26" fill="none" xmlns="http://www.w3.org/2000/svg">
<path d="M22.2334 13.9217V10.2289C22.2334 9.73922 22.0389 9.26958 21.6926 8.92332C21.3464 8.57705 20.8767 8.38252 20.3871 8.38252H2.84639C2.35669 8.38252 1.88706 8.57705 1.54079 8.92332C1.19453 9.26958 1 9.73922 1 10.2289V23.1536C1 23.6433 1.19453 24.1129 1.54079 24.4592C1.88706 24.8055 2.35669 25 2.84639 25H20.3871C20.8767 25 21.3464 24.8055 21.6926 24.4592C22.0389 24.1129 22.2334 23.6433 22.2334 23.1536V18.5376M7.16693 3.76656L17.6359 1.03391C17.7536 1.00076 17.8767 0.991793 17.9979 1.00755C18.1191 1.0233 18.2359 1.06345 18.3411 1.12557C18.4464 1.18769 18.538 1.27049 18.6103 1.36898C18.6827 1.46747 18.7344 1.5796 18.7622 1.6986L19.2792 3.76656" stroke="#4AB34A" stroke-width="1.71429" stroke-linecap="round" stroke-linejoin="round"/>
<path d="M24.0797 13.9219H19.4637C18.9539 13.9219 18.5405 14.3352 18.5405 14.8451V17.6146C18.5405 18.1245 18.9539 18.5378 19.4637 18.5378H24.0797C24.5896 18.5378 25.0029 18.1245 25.0029 17.6146V14.8451C25.0029 14.3352 24.5896 13.9219 24.0797 13.9219Z" stroke="#4AB34A" stroke-width="1.71429" stroke-linecap="round" stroke-linejoin="round"/>
</svg>
