<svg width="39" height="24" viewBox="0 0 39 24" fill="none" xmlns="http://www.w3.org/2000/svg">
<path d="M16.6686 16.6828C18.3824 15.7114 19.7265 14.2 20.4912 12.3845C21.2559 10.569 21.3982 8.5515 20.8959 6.64663C20.3936 4.74177 19.2749 3.05673 17.7144 1.85438C16.1539 0.652034 14.2393 0 12.2694 0C10.2994 0 8.38481 0.652034 6.82431 1.85438C5.26381 3.05673 4.14515 4.74177 3.64284 6.64663C3.14054 8.5515 3.28284 10.569 4.04755 12.3845C4.81226 14.2 6.15637 15.7114 7.87019 16.6828C4.69382 17.6954 1.96598 19.7765 0.150091 22.5725C0.0162839 22.7774 -0.0306093 23.0272 0.0197276 23.2668C0.0700646 23.5063 0.213508 23.7161 0.418503 23.8499C0.623497 23.9837 0.873251 24.0306 1.11282 23.9803C1.35239 23.9299 1.56215 23.7865 1.69596 23.5815C2.84129 21.8205 4.40833 20.3735 6.25479 19.3717C8.10126 18.37 10.1687 17.8453 12.2694 17.8453C14.3701 17.8453 16.4375 18.37 18.2839 19.3717C20.1304 20.3735 21.6974 21.8205 22.8428 23.5815C22.9853 23.7642 23.1913 23.8865 23.4199 23.9243C23.6485 23.9621 23.8829 23.9125 24.0766 23.7854C24.2703 23.6584 24.4092 23.4631 24.4656 23.2384C24.5219 23.0136 24.4917 22.7759 24.381 22.5725C22.567 19.7779 19.8421 17.697 16.6686 16.6828ZM5.19377 8.92577C5.19377 7.52634 5.60874 6.15835 6.38622 4.99477C7.1637 3.8312 8.26876 2.9243 9.56165 2.38876C10.8546 1.85323 12.2772 1.7131 13.6498 1.98612C15.0223 2.25913 16.283 2.93302 17.2726 3.92256C18.2621 4.9121 18.936 6.17285 19.209 7.54539C19.482 8.91792 19.3419 10.3406 18.8064 11.6335C18.2708 12.9264 17.3639 14.0314 16.2004 14.8089C15.0368 15.5864 13.6688 16.0014 12.2694 16.0014C10.3936 15.9989 8.59526 15.2527 7.26886 13.9263C5.94246 12.5999 5.19621 10.8016 5.19377 8.92577ZM37.6493 23.8461C37.4444 23.9797 37.1949 24.0266 36.9555 23.9764C36.7161 23.9263 36.5065 23.7831 36.3726 23.5784C35.2293 21.8173 33.6634 20.3702 31.8177 19.3692C29.9719 18.3681 27.905 17.8449 25.8053 17.8472C25.5605 17.8472 25.3258 17.7499 25.1527 17.5769C24.9796 17.4038 24.8824 17.169 24.8824 16.9243C24.8824 16.6795 24.9796 16.4448 25.1527 16.2717C25.3258 16.0986 25.5605 16.0014 25.8053 16.0014C26.8472 16.0003 27.8761 15.7692 28.8183 15.3244C29.7606 14.8797 30.593 14.2323 31.2561 13.4286C31.9191 12.6249 32.3965 11.6847 32.6541 10.6751C32.9117 9.66549 32.9432 8.61146 32.7462 7.58831C32.5493 6.56516 32.1288 5.59813 31.5148 4.75632C30.9008 3.9145 30.1085 3.21867 29.1944 2.71855C28.2804 2.21843 27.2671 1.92635 26.2271 1.86318C25.1871 1.80002 24.146 1.96732 23.1781 2.35315C23.0654 2.3993 22.9446 2.42269 22.8228 2.42195C22.701 2.42122 22.5806 2.39638 22.4684 2.34887C22.3563 2.30137 22.2546 2.23212 22.1694 2.14514C22.0841 2.05817 22.0169 1.95517 21.9716 1.84209C21.9263 1.72901 21.9039 1.60809 21.9056 1.48629C21.9073 1.3645 21.933 1.24425 21.9814 1.13246C22.0298 1.02068 22.0998 0.919581 22.1875 0.834994C22.2751 0.750407 22.3787 0.684006 22.4921 0.63962C24.5914 -0.197342 26.9302 -0.206357 29.0359 0.614396C31.1416 1.43515 32.8574 3.02449 33.8365 5.06138C34.8157 7.09826 34.9854 9.43087 34.3112 11.588C33.637 13.7451 32.1693 15.566 30.2045 16.6828C33.3809 17.6954 36.1087 19.7765 37.9246 22.5725C38.0566 22.778 38.1017 23.0274 38.0501 23.2661C37.9985 23.5049 37.8543 23.7134 37.6493 23.8461Z" fill="#4AB34A"/>
</svg>
