<svg width="32" height="32" viewBox="0 0 32 32" fill="none" xmlns="http://www.w3.org/2000/svg">
<path d="M9.69436 18.3116H8.61721C8.61721 18.5972 8.73069 18.8712 8.9327 19.0732C9.1347 19.2752 9.40868 19.3887 9.69436 19.3887V18.3116ZM18.3116 18.3116V19.3887C18.5972 19.3887 18.8712 19.2752 19.0732 19.0732C19.2752 18.8712 19.3887 18.5972 19.3887 18.3116H18.3116ZM18.3116 12.9258H19.3887C19.389 12.7843 19.3613 12.6441 19.3074 12.5132C19.2534 12.3823 19.1742 12.2634 19.0742 12.1632L18.3116 12.9258ZM14.003 8.61721L14.7656 7.85458C14.6655 7.75427 14.5467 7.67469 14.4158 7.62039C14.2849 7.56608 14.1446 7.53813 14.003 7.53813C13.8613 7.53813 13.721 7.56608 13.5901 7.62039C13.4593 7.67469 13.3404 7.75427 13.2403 7.85458L14.003 8.61721ZM9.69436 12.9258L8.93174 12.1632C8.83177 12.2634 8.75254 12.3823 8.69857 12.5132C8.6446 12.6441 8.61695 12.7843 8.61721 12.9258H9.69436ZM32 30.4748L23.3828 21.8575L21.8575 23.3828L30.4748 32L32 30.4748ZM14.003 25.8516C10.8605 25.8516 7.84675 24.6033 5.62469 22.3812C3.40264 20.1592 2.1543 17.1454 2.1543 14.003H0C0 17.7168 1.47531 21.2785 4.10137 23.9046C6.72744 26.5306 10.2891 28.0059 14.003 28.0059V25.8516ZM25.8516 14.003C25.8516 17.1454 24.6033 20.1592 22.3812 22.3812C20.1592 24.6033 17.1454 25.8516 14.003 25.8516V28.0059C17.7168 28.0059 21.2785 26.5306 23.9046 23.9046C26.5306 21.2785 28.0059 17.7168 28.0059 14.003H25.8516ZM14.003 2.1543C17.1454 2.1543 20.1592 3.40264 22.3812 5.62469C24.6033 7.84675 25.8516 10.8605 25.8516 14.003H28.0059C28.0059 10.2891 26.5306 6.72744 23.9046 4.10137C21.2785 1.47531 17.7168 0 14.003 0V2.1543ZM14.003 0C10.2891 0 6.72744 1.47531 4.10137 4.10137C1.47531 6.72744 0 10.2891 0 14.003H2.1543C2.1543 10.8605 3.40264 7.84675 5.62469 5.62469C7.84675 3.40264 10.8605 2.1543 14.003 2.1543V0ZM9.69436 19.3887H18.3116V17.2344H9.69436V19.3887ZM19.3887 18.3116V12.9258H17.2344V18.3116H19.3887ZM19.0742 12.1632L14.7656 7.85458L13.2403 9.37983L17.5489 13.6884L19.0742 12.1632ZM13.2403 7.85458L8.93174 12.1632L10.457 13.6884L14.7656 9.37983L13.2403 7.85458ZM8.61721 12.9258V18.3116H10.7715V12.9258H8.61721Z" fill="#4AB34A"/>
</svg>
