<svg width="24" height="24" viewBox="0 0 24 24" fill="none" xmlns="http://www.w3.org/2000/svg">
<path d="M12 0C10.4014 0.000226482 8.81908 0.321238 7.34677 0.944024C5.87446 1.56681 4.54209 2.47871 3.42857 3.62571V0H1.71429V6.85714H8.57143V5.14286H4.35428C5.96231 3.35597 8.14541 2.18874 10.5244 1.84389C12.9035 1.49904 15.3282 1.99836 17.3774 3.25512C19.4266 4.51188 20.9709 6.4467 21.742 8.72354C22.5132 11.0004 22.4626 13.4754 21.5989 15.7188C20.7352 17.9622 19.113 19.8322 17.0141 21.004C14.9151 22.1759 12.4721 22.5755 10.1091 22.1336C7.7462 21.6917 5.61269 20.4361 4.07914 18.5849C2.54558 16.7337 1.70886 14.4039 1.71429 12H0C0 14.3734 0.703788 16.6934 2.02236 18.6668C3.34094 20.6402 5.21508 22.1783 7.4078 23.0865C9.60051 23.9948 12.0133 24.2324 14.3411 23.7694C16.6689 23.3064 18.807 22.1635 20.4853 20.4853C22.1635 18.807 23.3064 16.6689 23.7694 14.3411C24.2324 12.0133 23.9948 9.60051 23.0865 7.4078C22.1783 5.21508 20.6402 3.34094 18.6668 2.02236C16.6934 0.703788 14.3734 0 12 0Z" fill="#4AB34A"/>
</svg>
