<svg width="28" height="24" viewBox="0 0 28 24" fill="none" xmlns="http://www.w3.org/2000/svg">
<path d="M25.3953 4.46512H3.06977C2.6997 4.46512 2.34479 4.31811 2.08311 4.05643C1.82143 3.79475 1.67442 3.43984 1.67442 3.06977C1.67442 2.6997 1.82143 2.34479 2.08311 2.08311C2.34479 1.82143 2.6997 1.67442 3.06977 1.67442H22.0465C22.2686 1.67442 22.4815 1.58621 22.6385 1.42921C22.7955 1.2722 22.8837 1.05925 22.8837 0.837209C22.8837 0.615168 22.7955 0.40222 22.6385 0.245213C22.4815 0.0882056 22.2686 0 22.0465 0H3.06977C2.25561 0 1.47481 0.323421 0.899114 0.899114C0.323421 1.47481 0 2.25561 0 3.06977V20.9302C0 21.7444 0.323421 22.5252 0.899114 23.1009C1.47481 23.6766 2.25561 24 3.06977 24H25.3953C25.9134 24 26.4103 23.7942 26.7767 23.4278C27.143 23.0615 27.3488 22.5646 27.3488 22.0465V6.4186C27.3488 5.90051 27.143 5.40363 26.7767 5.03728C26.4103 4.67093 25.9134 4.46512 25.3953 4.46512ZM25.6744 22.0465C25.6744 22.1205 25.645 22.1915 25.5927 22.2438C25.5403 22.2962 25.4694 22.3256 25.3953 22.3256H3.06977C2.6997 22.3256 2.34479 22.1786 2.08311 21.9169C1.82143 21.6552 1.67442 21.3003 1.67442 20.9302V5.80326C2.10613 6.02484 2.58451 6.14013 3.06977 6.13953H25.3953C25.4694 6.13953 25.5403 6.16894 25.5927 6.22127C25.645 6.27361 25.6744 6.34459 25.6744 6.4186V22.0465ZM21.7674 13.6744C21.7674 13.9504 21.6856 14.2202 21.5323 14.4496C21.379 14.6791 21.161 14.8579 20.9061 14.9636C20.6511 15.0692 20.3705 15.0968 20.0999 15.043C19.8292 14.9891 19.5806 14.8562 19.3854 14.6611C19.1903 14.4659 19.0574 14.2173 19.0036 13.9466C18.9497 13.676 18.9773 13.3954 19.083 13.1404C19.1886 12.8855 19.3674 12.6676 19.5969 12.5142C19.8263 12.3609 20.0961 12.2791 20.3721 12.2791C20.7422 12.2791 21.0971 12.4261 21.3588 12.6878C21.6204 12.9494 21.7674 13.3043 21.7674 13.6744Z" fill="#4AB34A"/>
</svg>
