<svg width="27" height="26" viewBox="0 0 27 26" fill="none" xmlns="http://www.w3.org/2000/svg">
<path d="M14.4849 1.60411L17.553 7.79832C17.6228 7.95554 17.7326 8.09172 17.8714 8.1933C18.0102 8.29487 18.1732 8.35828 18.3442 8.37722L25.1173 9.38064C25.3134 9.40585 25.4983 9.48634 25.6504 9.6127C25.8025 9.73906 25.9155 9.90608 25.9762 10.0943C26.0369 10.2824 26.0428 10.484 25.9932 10.6754C25.9436 10.8668 25.8406 11.0402 25.6962 11.1752L20.8142 16.0187C20.6896 16.1351 20.596 16.2808 20.5421 16.4426C20.4882 16.6043 20.4756 16.777 20.5054 16.9449L21.6825 23.7566C21.7166 23.9524 21.695 24.1537 21.6203 24.3378C21.5456 24.5219 21.4207 24.6813 21.2599 24.7979C21.099 24.9146 20.9087 24.9837 20.7105 24.9974C20.5123 25.0112 20.3142 24.9691 20.1388 24.8758L14.041 21.6533C13.8849 21.5766 13.7133 21.5368 13.5393 21.5368C13.3654 21.5368 13.1938 21.5766 13.0376 21.6533L6.93989 24.8758C6.76446 24.9691 6.56638 25.0112 6.36818 24.9974C6.16998 24.9837 5.97963 24.9146 5.81878 24.7979C5.65794 24.6813 5.53305 24.5219 5.45833 24.3378C5.38362 24.1537 5.36208 23.9524 5.39616 23.7566L6.57325 16.8677C6.60309 16.6998 6.59047 16.5272 6.53654 16.3654C6.48262 16.2036 6.38911 16.0579 6.26451 15.9415L1.32457 11.1752C1.17843 11.0365 1.07565 10.8583 1.02869 10.6624C0.981727 10.4664 0.992601 10.261 1.05999 10.0711C1.12738 9.88116 1.2484 9.71485 1.40838 9.59231C1.56836 9.46977 1.76044 9.39624 1.96136 9.38064L8.73448 8.37722C8.90544 8.35828 9.06845 8.29487 9.20727 8.1933C9.34609 8.09172 9.45586 7.95554 9.52564 7.79832L12.5938 1.60411C12.6774 1.4237 12.8108 1.27096 12.9783 1.16392C13.1459 1.05688 13.3405 1 13.5393 1C13.7381 1 13.9328 1.05688 14.1004 1.16392C14.2679 1.27096 14.4013 1.4237 14.4849 1.60411Z" stroke="#4AB34A" stroke-width="1.5" stroke-linecap="round" stroke-linejoin="round"/>
</svg>
